<svg xmlns="http://www.w3.org/2000/svg" width="400" height="300" viewBox="0 0 400 300">
  <g>
    <rect width="400" height="300" fill="#273a5c"/>
    <g>
      <path d="M67.1338,195.2168,115.2773,41.3447H157.05l48.1436,153.8721H168.3779l-9.44-36.58H111.9736l-9.4394,36.58Zm55.6963-77.88-3.7764,14.1592h32.8037l-3.54-14.1592q-3.3076-11.56-6.3711-24.5439-3.07-12.9756-6.1367-25.0157h-.9434Q132.0331,80.05,129.084,92.91,126.1295,105.7773,122.83,117.3369Z" fill="#a93b6e"/>
      <path d="M251.9189,198.0488a37.3214,37.3214,0,0,1-14.5136-2.7138,31.0121,31.0121,0,0,1-10.9746-7.5518,34.9158,34.9158,0,0,1-6.9619-11.2109,38.1,38.1,0,0,1-2.4776-13.9239q0-18.4071,15.5762-28.791t50.2676-13.9248q-.4761-7.7886-4.6016-12.39-4.1324-4.6026-13.8066-4.6016a41.7841,41.7841,0,0,0-14.9854,2.832,108.822,108.822,0,0,0-15.9307,7.7871L221.0029,90.6689a122.7808,122.7808,0,0,1,23.7178-11.0927,80.5686,80.5686,0,0,1,26.3145-4.2481q22.6552,0,34.5742,12.8633,11.9136,12.8643,11.9179,40.002v67.0234h-28.32l-2.36-12.0361h-.9434a74.8213,74.8213,0,0,1-15.8125,10.7382A40.0934,40.0934,0,0,1,251.9189,198.0488Zm11.8-26.9043a19.0771,19.0771,0,0,0,10.1484-2.5957,49.5377,49.5377,0,0,0,8.9678-7.3164V140.7012q-18.4073,2.5986-25.4883,7.5517-7.08,4.9555-7.0791,11.8,0,5.6631,3.6572,8.378T263.7188,171.1445Z" fill="#a93b6e"/>
    </g>
    <g>
      <path d="M97.45,253.6475v-4.0323q2.9268-2.7363,5.3516-5.1113,2.4228-2.376,4.1757-4.4648a24.374,24.374,0,0,0,2.7364-3.8877,7.1815,7.1815,0,0,0,.9843-3.4317,4.7141,4.7141,0,0,0-1.1523-3.4326,4.2356,4.2356,0,0,0-3.168-1.1758,4.954,4.954,0,0,0-2.9765.9366,16.4163,16.4163,0,0,0-2.4473,2.1835l-3.84-3.7919a17.5265,17.5265,0,0,1,4.6074-3.6241,12.0139,12.0139,0,0,1,5.6162-1.2236,11.5846,11.5846,0,0,1,4.1035.6953,9.4387,9.4387,0,0,1,3.1924,1.9688,8.5878,8.5878,0,0,1,2.0644,3.0478,10.53,10.53,0,0,1,.72,3.9834,10.271,10.271,0,0,1-.8164,3.9121,21.3312,21.3312,0,0,1-2.1836,3.9844,42.2773,42.2773,0,0,1-3.12,3.9834q-1.7535,1.9937-3.6241,3.9121,1.1514-.1436,2.5684-.2637,1.415-.1187,2.52-.12h6.1445v5.9522Z" fill="#fff"/>
      <path d="M128.2178,254.2236a4.0569,4.0569,0,0,1-3.0479-1.2724,4.3561,4.3561,0,0,1-1.2246-3.1436,4.4218,4.4218,0,0,1,1.2246-3.1924,4.2889,4.2889,0,0,1,6.0957,0,4.4211,4.4211,0,0,1,1.2237,3.1924,4.3554,4.3554,0,0,1-1.2237,3.1436A4.06,4.06,0,0,1,128.2178,254.2236Z" fill="#fff"/>
      <path d="M148.0889,254.2236a9.6574,9.6574,0,0,1-4.4639-1.0322,9.4181,9.4181,0,0,1-3.4316-3.0478,15.5765,15.5765,0,0,1-2.208-4.9922,26.7776,26.7776,0,0,1-.792-6.8643,26.22,26.22,0,0,1,.792-6.8154,15.3129,15.3129,0,0,1,2.208-4.92,9.0725,9.0725,0,0,1,3.4316-2.9766,10.6229,10.6229,0,0,1,8.9277,0,9.0763,9.0763,0,0,1,3.4327,2.9766,15.36,15.36,0,0,1,2.208,4.92,26.2675,26.2675,0,0,1,.792,6.8154,26.8264,26.8264,0,0,1-.792,6.8643,15.6246,15.6246,0,0,1-2.208,4.9922,9.422,9.422,0,0,1-3.4327,3.0478A9.657,9.657,0,0,1,148.0889,254.2236Zm0-5.4726a3.2328,3.2328,0,0,0,1.68-.4551,3.7254,3.7254,0,0,0,1.3447-1.6563,11.7307,11.7307,0,0,0,.8877-3.2158,34.6451,34.6451,0,0,0,.3125-5.1367,34.1361,34.1361,0,0,0-.3125-5.1113,10.65,10.65,0,0,0-.8877-3.12,3.588,3.588,0,0,0-1.3447-1.5606,3.3672,3.3672,0,0,0-1.68-.4316,3.275,3.275,0,0,0-1.6319.4316,3.5739,3.5739,0,0,0-1.3437,1.5606,11.0407,11.0407,0,0,0-.9121,3.12,31.6749,31.6749,0,0,0-.336,5.1113,32.1463,32.1463,0,0,0,.336,5.1367,12.187,12.187,0,0,0,.9121,3.2158,3.711,3.711,0,0,0,1.3437,1.6563A3.1457,3.1457,0,0,0,148.0889,248.751Z" fill="#fff"/>
      <path d="M171.7529,254.2236a11.7164,11.7164,0,0,1-5.2558-1.1045,13.7537,13.7537,0,0,1-3.6719-2.5439l3.7432-4.2236a6.7582,6.7582,0,0,0,2.0644,1.5117,5.8381,5.8381,0,0,0,2.64.6484,5.95,5.95,0,0,0,2.4-.48,4.8445,4.8445,0,0,0,1.9443-1.6074,8.915,8.915,0,0,0,1.3437-2.9287,19.55,19.55,0,0,0,.6-4.4873,7.2369,7.2369,0,0,1-1.3437,1.3672,9.3228,9.3228,0,0,1-1.584,1.0088,8.6213,8.6213,0,0,1-1.6318.624,6.0414,6.0414,0,0,1-1.5362.2158,10.9683,10.9683,0,0,1-3.624-.5761,7.7313,7.7313,0,0,1-2.8564-1.7276,8.0568,8.0568,0,0,1-1.8955-2.9287,11.3923,11.3923,0,0,1-.6963-4.1758,10.6308,10.6308,0,0,1,.8164-4.248,10.06,10.06,0,0,1,2.1836-3.24,9.1418,9.1418,0,0,1,3.2158-2.04,11.0284,11.0284,0,0,1,3.9121-.6953,11.1484,11.1484,0,0,1,4.2959.8633,9.9948,9.9948,0,0,1,3.6963,2.6885,13.7833,13.7833,0,0,1,2.5918,4.68,21.2768,21.2768,0,0,1,.9844,6.8887,23.6339,23.6339,0,0,1-1.0323,7.3916,15.3229,15.3229,0,0,1-2.7363,5.1358,10.8621,10.8621,0,0,1-3.9355,3A11.3806,11.3806,0,0,1,171.7529,254.2236Zm1.1035-16.9922a4.8665,4.8665,0,0,0,2.4239-.6962,5.85,5.85,0,0,0,2.1367-2.3282q-.48-3.5991-1.8-4.9677a4.0241,4.0241,0,0,0-2.9522-1.3682,3.6493,3.6493,0,0,0-2.6884,1.1768,5.2332,5.2332,0,0,0-1.1514,3.7675,4.3243,4.3243,0,0,0,1.1514,3.4317A4.28,4.28,0,0,0,172.8564,237.2314Z" fill="#fff"/>
      <path d="M205.4961,262.2393a45.54,45.54,0,0,1-4.68-10.2715,41.9014,41.9014,0,0,1,0-23.3282,45.5658,45.5658,0,0,1,4.68-10.2724l4.416,1.8242a37.3923,37.3923,0,0,0-3.84,9.84,44.5569,44.5569,0,0,0,0,20.544,37.3789,37.3789,0,0,0,3.84,9.84Z" fill="#fff"/>
      <path d="M215.9121,253.6475V222.3516H235.64v5.9521H222.9678v7.2481h10.8476v5.9521H222.9678v12.1436Z" fill="#fff"/>
      <path d="M244.6631,254.2236a7.5986,7.5986,0,0,1-2.9522-.5517,6.32,6.32,0,0,1-2.2324-1.5362,7.136,7.136,0,0,1-1.416-2.28,7.75,7.75,0,0,1-.5039-2.8321,6.6693,6.6693,0,0,1,3.168-5.8564q3.1685-2.1108,10.2246-2.8311a4.02,4.02,0,0,0-.9366-2.52,3.6188,3.6188,0,0,0-2.8076-.9355,8.5035,8.5035,0,0,0-3.0478.5752,22.2658,22.2658,0,0,0-3.24,1.584l-2.5439-4.6553a24.916,24.916,0,0,1,4.8242-2.2559,16.3791,16.3791,0,0,1,5.3516-.8642q4.6083,0,7.0322,2.6162t2.4238,8.1357v13.6319h-5.76l-.48-2.4483h-.1914a15.2348,15.2348,0,0,1-3.2158,2.1846A8.158,8.158,0,0,1,244.6631,254.2236Zm2.3994-5.4726a3.8793,3.8793,0,0,0,2.0645-.5274,10.0651,10.0651,0,0,0,1.8242-1.4882V242.56a12.7922,12.7922,0,0,0-5.1846,1.5361,2.8993,2.8993,0,0,0-1.44,2.3994,1.9784,1.9784,0,0,0,.7442,1.7041A3.2624,3.2624,0,0,0,247.0625,248.751Z" fill="#fff"/>
      <path d="M267.4639,226.3359a4.2186,4.2186,0,0,1-2.9278-1.0322,3.4121,3.4121,0,0,1-1.1523-2.6641,3.3414,3.3414,0,0,1,1.1523-2.6406,4.792,4.792,0,0,1,5.88,0,3.3782,3.3782,0,0,1,1.1279,2.6406,3.45,3.45,0,0,1-1.1279,2.6641A4.2007,4.2007,0,0,1,267.4639,226.3359ZM263.96,253.6475V229.84h7.0556v23.8077Z" fill="#fff"/>
      <path d="M283.6855,254.2236a7.3093,7.3093,0,0,1-3.0712-.5761,4.9524,4.9524,0,0,1-1.9922-1.6084,6.7994,6.7994,0,0,1-1.08-2.4952,14.7085,14.7085,0,0,1-.3359-3.288V219.999h7.0556v26.5449a2.2324,2.2324,0,0,0,.4082,1.5352,1.1687,1.1687,0,0,0,.84.4326h.4082a1.54,1.54,0,0,0,.456-.0967l.8643,5.2325a7.55,7.55,0,0,1-1.4639.4082A11.4452,11.4452,0,0,1,283.6855,254.2236Z" fill="#fff"/>
      <path d="M294.5342,262.2393l-4.416-1.8243a36.4958,36.4958,0,0,0,3.8886-9.84,44.5895,44.5895,0,0,0,0-20.544,36.5087,36.5087,0,0,0-3.8886-9.84l4.416-1.8242a45.5649,45.5649,0,0,1,4.6806,10.2724,41.9233,41.9233,0,0,1,0,23.3282A45.5386,45.5386,0,0,1,294.5342,262.2393Z" fill="#fff"/>
    </g>
  </g>
</svg>
