<svg xmlns="http://www.w3.org/2000/svg" width="400" height="300" viewBox="0 0 400 300">
  <g>
    <rect width="400" height="300" fill="#1e2947"/>
    <g>
      <path d="M67.1338,195.2168,115.2773,41.3447H157.05l48.1436,153.8721H168.3779l-9.44-36.58H111.9736l-9.4394,36.58Zm55.6963-77.88-3.7764,14.1592h32.8037l-3.54-14.1592q-3.3076-11.56-6.3711-24.5439-3.07-12.9756-6.1367-25.0157h-.9434Q132.0331,80.05,129.084,92.91,126.1295,105.7773,122.83,117.3369Z" fill="#f2849a"/>
      <path d="M251.9189,198.0488a37.3214,37.3214,0,0,1-14.5136-2.7138,31.0121,31.0121,0,0,1-10.9746-7.5518,34.9158,34.9158,0,0,1-6.9619-11.2109,38.1,38.1,0,0,1-2.4776-13.9239q0-18.4071,15.5762-28.791t50.2676-13.9248q-.4761-7.7886-4.6016-12.39-4.1324-4.6026-13.8066-4.6016a41.7841,41.7841,0,0,0-14.9854,2.832,108.822,108.822,0,0,0-15.9307,7.7871L221.0029,90.6689a122.7808,122.7808,0,0,1,23.7178-11.0927,80.5686,80.5686,0,0,1,26.3145-4.2481q22.6552,0,34.5742,12.8633,11.9136,12.8643,11.9179,40.002v67.0234h-28.32l-2.36-12.0361h-.9434a74.8213,74.8213,0,0,1-15.8125,10.7382A40.0934,40.0934,0,0,1,251.9189,198.0488Zm11.8-26.9043a19.0771,19.0771,0,0,0,10.1484-2.5957,49.5377,49.5377,0,0,0,8.9678-7.3164V140.7012q-18.4073,2.5986-25.4883,7.5517-7.08,4.9555-7.0791,11.8,0,5.6631,3.6572,8.378T263.7188,171.1445Z" fill="#f2849a"/>
    </g>
    <g>
      <path d="M97.93,254.2236a14.7675,14.7675,0,0,1-6.3369-1.2246,15.5572,15.5572,0,0,1-4.416-3.0478l3.1689-4.4639a16.1463,16.1463,0,0,0,3,2.1357,7.2578,7.2578,0,0,0,3.5752.8887,5.5418,5.5418,0,0,0,3.7441-1.2,4.4331,4.4331,0,0,0,1.3926-3.5517,4.4956,4.4956,0,0,0-1.32-3.5039,4.9766,4.9766,0,0,0-3.4805-1.2,8.8049,8.8049,0,0,0-1.1992.0722,4.6505,4.6505,0,0,0-1.0322.2637,9.983,9.983,0,0,0-1.0557.48q-.5537.2886-1.2246.7207l-3.168-2.0166.8643-15.4082h17.28v5.9521H96.5371l-.5283,5.712a7.7723,7.7723,0,0,1,3.4082-.72,11.8526,11.8526,0,0,1,3.7207.5762,9.06,9.06,0,0,1,3.0957,1.7275,7.9562,7.9562,0,0,1,2.1123,2.9288,11.7988,11.7988,0,0,1-.1445,8.7353,10.0685,10.0685,0,0,1-2.4483,3.3359,10.6465,10.6465,0,0,1-3.5761,2.0889A12.6843,12.6843,0,0,1,97.93,254.2236Z" fill="#fff"/>
      <path d="M118.6172,254.2236a4.0569,4.0569,0,0,1-3.0479-1.2724,4.3561,4.3561,0,0,1-1.2246-3.1436,4.4218,4.4218,0,0,1,1.2246-3.1924,4.2889,4.2889,0,0,1,6.0957,0,4.4211,4.4211,0,0,1,1.2237,3.1924,4.3554,4.3554,0,0,1-1.2237,3.1436A4.06,4.06,0,0,1,118.6172,254.2236Z" fill="#fff"/>
      <path d="M138.44,254.2236a14.332,14.332,0,0,1-4.248-.6006,10.3735,10.3735,0,0,1-3.36-1.7031,7.9306,7.9306,0,0,1-2.208-2.6406,7.3327,7.3327,0,0,1-.792-3.4082,6.7859,6.7859,0,0,1,1.5127-4.56,12.4659,12.4659,0,0,1,3.6719-2.9277v-.1924a12.8252,12.8252,0,0,1-2.9277-3.0478,7.2372,7.2372,0,0,1-1.1524-4.1524,8.2159,8.2159,0,0,1,.72-3.48,7.6969,7.6969,0,0,1,2.0167-2.664,8.8856,8.8856,0,0,1,3.0957-1.6807,12.7746,12.7746,0,0,1,3.9121-.5752,11.5148,11.5148,0,0,1,3.792.6,8.48,8.48,0,0,1,2.9277,1.68,7.4956,7.4956,0,0,1,1.8721,2.6406,8.5968,8.5968,0,0,1,.6718,3.4317,6.625,6.625,0,0,1-1.2,3.9121,10.5669,10.5669,0,0,1-2.7841,2.76v.1924a12.5237,12.5237,0,0,1,3.7441,3.0723,8.22,8.22,0,0,1,.7686,8.2558,7.9157,7.9157,0,0,1-2.1846,2.6641,10.7443,10.7443,0,0,1-3.4072,1.7754A14.2942,14.2942,0,0,1,138.44,254.2236Zm.1436-4.8965a4.4968,4.4968,0,0,0,2.9287-.9355,3.464,3.464,0,0,0,1.1514-2.8564,3.163,3.163,0,0,0-.4561-1.7276,4.691,4.691,0,0,0-1.3193-1.32,12.8218,12.8218,0,0,0-2.04-1.1279q-1.1776-.5274-2.6162-1.1524a8.7821,8.7821,0,0,0-1.68,2.208,5.4812,5.4812,0,0,0-.6718,2.6407,3.817,3.817,0,0,0,1.3916,3.1435A5.09,5.09,0,0,0,138.584,249.3271Zm1.7764-13.4394a6.7764,6.7764,0,0,0,1.872-4.4639,4.0764,4.0764,0,0,0-.9844-2.8564,3.4851,3.4851,0,0,0-2.7119-1.08,3.5635,3.5635,0,0,0-2.3994.8643,3.2886,3.2886,0,0,0-1.0088,2.64,3.4294,3.4294,0,0,0,1.44,2.9287A16.5614,16.5614,0,0,0,140.36,235.8877Z" fill="#fff"/>
      <path d="M165.2725,253.6475v-7.2959h-13.2v-4.8477L163.208,223.167h8.6406v17.8086h3.5039v5.376h-3.5039v7.2959ZM158.84,240.9756h6.4327v-4.9444q0-1.4868.0957-3.4316t.1923-3.3838h-.1923q-.5757,1.2482-1.2,2.544t-1.2959,2.5918Z" fill="#fff"/>
      <path d="M195.8955,262.2393a45.54,45.54,0,0,1-4.68-10.2715,41.9014,41.9014,0,0,1,0-23.3282,45.5658,45.5658,0,0,1,4.68-10.2724l4.416,1.8242a37.3923,37.3923,0,0,0-3.84,9.84,44.5569,44.5569,0,0,0,0,20.544,37.3789,37.3789,0,0,0,3.84,9.84Z" fill="#fff"/>
      <path d="M206.3115,253.6475V222.3516h10.752a22.214,22.214,0,0,1,4.8476.5039,10.9669,10.9669,0,0,1,3.9366,1.68,8.3322,8.3322,0,0,1,2.664,3.12,10.5084,10.5084,0,0,1,.9834,4.7763,10.7311,10.7311,0,0,1-.9834,4.752,9.22,9.22,0,0,1-2.664,3.3115,11.3339,11.3339,0,0,1-3.8887,1.92,17.1853,17.1853,0,0,1-4.7041.6241h-3.8877v10.6084Zm7.0557-16.2237h3.456q5.76,0,5.76-4.9922a3.8182,3.8182,0,0,0-1.5361-3.456,8.0551,8.0551,0,0,0-4.416-1.0078h-3.2637Z" fill="#fff"/>
      <path d="M238.7109,254.2236a7.598,7.598,0,0,1-2.9521-.5517,6.3192,6.3192,0,0,1-2.2324-1.5362,7.1342,7.1342,0,0,1-1.416-2.28,7.7482,7.7482,0,0,1-.504-2.8321,6.67,6.67,0,0,1,3.168-5.8564q3.1684-2.1108,10.2246-2.8311a4.0194,4.0194,0,0,0-.9365-2.52,3.6191,3.6191,0,0,0-2.8076-.9355,8.504,8.504,0,0,0-3.0479.5752,22.26,22.26,0,0,0-3.24,1.584l-2.5439-4.6553a24.9132,24.9132,0,0,1,4.8242-2.2559,16.3789,16.3789,0,0,1,5.3515-.8642q4.6084,0,7.0323,2.6162t2.4238,8.1357v13.6319h-5.76l-.48-2.4483h-.1915a15.2322,15.2322,0,0,1-3.2158,2.1846A8.1577,8.1577,0,0,1,238.7109,254.2236Zm2.3995-5.4726a3.8789,3.8789,0,0,0,2.0644-.5274,10.0583,10.0583,0,0,0,1.8242-1.4882V242.56a12.7911,12.7911,0,0,0-5.1845,1.5361,2.8993,2.8993,0,0,0-1.44,2.3994,1.9786,1.9786,0,0,0,.7441,1.7041A3.2627,3.2627,0,0,0,241.11,248.751Z" fill="#fff"/>
      <path d="M265.0146,254.2236a13.9049,13.9049,0,0,1-4.8242-.9121,14.8508,14.8508,0,0,1-4.2959-2.4l3.168-4.416a14.2823,14.2823,0,0,0,3.12,1.8721,7.7344,7.7344,0,0,0,3.0244.624,3.9448,3.9448,0,0,0,2.3037-.5273,1.7392,1.7392,0,0,0,.72-1.4883,1.5108,1.5108,0,0,0-.4082-1.0322,4.1786,4.1786,0,0,0-1.1035-.84,11.0384,11.0384,0,0,0-1.56-.6963q-.8643-.31-1.7764-.6953a22.2519,22.2519,0,0,1-2.208-1.0088,9.2863,9.2863,0,0,1-2.0156-1.416,6.9289,6.9289,0,0,1-1.4883-1.9678,5.676,5.676,0,0,1-.5762-2.6162,7.0694,7.0694,0,0,1,.6485-3.0234,6.4663,6.4663,0,0,1,1.8476-2.3526,9.1224,9.1224,0,0,1,2.88-1.5117,11.9753,11.9753,0,0,1,3.7441-.5517,11.52,11.52,0,0,1,4.8.9355,19.2274,19.2274,0,0,1,3.6,2.0879l-3.168,4.2246a12.5028,12.5028,0,0,0-2.544-1.4883,6.3712,6.3712,0,0,0-2.4961-.5283q-2.6879,0-2.6874,1.8721a1.3853,1.3853,0,0,0,.3837.9844,3.8008,3.8008,0,0,0,1.0323.7441,13.1693,13.1693,0,0,0,1.4882.6475q.8394.3134,1.752.6484,1.1514.4321,2.2793.9834a9.5261,9.5261,0,0,1,2.0645,1.3682,6.058,6.058,0,0,1,2.0878,4.8007,7.3044,7.3044,0,0,1-.624,3.0235,6.6459,6.6459,0,0,1-1.8721,2.4238,9.33,9.33,0,0,1-3.0722,1.6318A13.5094,13.5094,0,0,1,265.0146,254.2236Z" fill="#fff"/>
      <path d="M286.2783,254.2236a13.9045,13.9045,0,0,1-4.8242-.9121,14.85,14.85,0,0,1-4.2959-2.4l3.168-4.416a14.2823,14.2823,0,0,0,3.12,1.8721,7.7344,7.7344,0,0,0,3.0244.624,3.945,3.945,0,0,0,2.3037-.5273,1.7391,1.7391,0,0,0,.72-1.4883,1.5108,1.5108,0,0,0-.4082-1.0322,4.1753,4.1753,0,0,0-1.1035-.84,11.037,11.037,0,0,0-1.5595-.6963q-.8643-.31-1.7764-.6953a22.2415,22.2415,0,0,1-2.208-1.0088,9.2839,9.2839,0,0,1-2.0156-1.416,6.9289,6.9289,0,0,1-1.4883-1.9678,5.676,5.676,0,0,1-.5762-2.6162,7.0708,7.0708,0,0,1,.6484-3.0234,6.4676,6.4676,0,0,1,1.8477-2.3526,9.1224,9.1224,0,0,1,2.88-1.5117,11.9749,11.9749,0,0,1,3.7441-.5517,11.52,11.52,0,0,1,4.8.9355,19.2232,19.2232,0,0,1,3.6,2.0879l-3.1679,4.2246a12.5055,12.5055,0,0,0-2.544-1.4883,6.3712,6.3712,0,0,0-2.4961-.5283q-2.688,0-2.6875,1.8721a1.3854,1.3854,0,0,0,.3838.9844,3.8017,3.8017,0,0,0,1.0322.7441,13.1793,13.1793,0,0,0,1.4883.6475q.8394.3134,1.752.6484,1.1513.4321,2.2793.9834a9.523,9.523,0,0,1,2.0644,1.3682,6.0585,6.0585,0,0,1,2.0879,4.8007,7.3044,7.3044,0,0,1-.624,3.0235,6.6469,6.6469,0,0,1-1.8721,2.4238,9.33,9.33,0,0,1-3.0722,1.6318A13.51,13.51,0,0,1,286.2783,254.2236Z" fill="#fff"/>
      <path d="M304.1338,262.2393l-4.416-1.8243a36.4958,36.4958,0,0,0,3.8886-9.84,44.5895,44.5895,0,0,0,0-20.544,36.5087,36.5087,0,0,0-3.8886-9.84l4.416-1.8242a45.57,45.57,0,0,1,4.6807,10.2724,41.9257,41.9257,0,0,1,0,23.3282A45.5434,45.5434,0,0,1,304.1338,262.2393Z" fill="#fff"/>
    </g>
  </g>
</svg>
