<svg xmlns="http://www.w3.org/2000/svg" width="280" height="80" viewBox="0 0 280 80">
  <g>
    <rect width="280" height="80" rx="10" fill="#fc6"/>
    <path d="M270,7.0562a2.5028,2.5028,0,0,1,2.5,2.5v60a2.5028,2.5028,0,0,1-2.5,2.5H10a2.5028,2.5028,0,0,1-2.5-2.5v-60a2.5028,2.5028,0,0,1,2.5-2.5H270m0-2.5H10a5,5,0,0,0-5,5v60a5,5,0,0,0,5,5H270a5,5,0,0,0,5-5v-60a5,5,0,0,0-5-5Z" fill="#231654"/>
    <g>
      <path d="M90.4238,49.0122V26.5181h7.6934a19.18,19.18,0,0,1,3.2607.2588,7.7924,7.7924,0,0,1,2.6221.914,4.8893,4.8893,0,0,1,1.76,1.7256,5.186,5.186,0,0,1,.6377,2.6905,5.7583,5.7583,0,0,1-.2071,1.5185,5.9394,5.9394,0,0,1-.5859,1.4141,5.3743,5.3743,0,0,1-.915,1.1728,3.3144,3.3144,0,0,1-1.2247.76V37.11a5.6616,5.6616,0,0,1,1.587.6377,5.0249,5.0249,0,0,1,1.2763,1.0869,4.8863,4.8863,0,0,1,.8633,1.5351,6.0543,6.0543,0,0,1,.3106,2.0186,6.1468,6.1468,0,0,1-.6729,2.9668,5.79,5.79,0,0,1-1.8633,2.0527,8.5837,8.5837,0,0,1-2.7773,1.208,14.0371,14.0371,0,0,1-3.4151.3965ZM95.4951,35.523H97.876a4.1264,4.1264,0,0,0,2.708-.7246,2.4182,2.4182,0,0,0,.8457-1.9327,2.0419,2.0419,0,0,0-.8623-1.8623,5.03,5.03,0,0,0-2.6572-.5517H95.4951Zm0,9.5566h2.8643q4.1733,0,4.1738-3.0361a2.2981,2.2981,0,0,0-1.0342-2.1221,6.1139,6.1139,0,0,0-3.14-.6377H95.4951Z" fill="#231654"/>
      <path d="M116.0225,49.4263a4.5706,4.5706,0,0,1-4.0537-1.8281,8.8443,8.8443,0,0,1-1.2588-5.0723V31.9h5.0712v9.9707a4.4976,4.4976,0,0,0,.5176,2.5528,1.8911,1.8911,0,0,0,1.6211.69,2.8093,2.8093,0,0,0,1.6221-.4483,6.5389,6.5389,0,0,0,1.4141-1.4492V31.9h5.0712V49.0122h-4.14l-.38-2.3808h-.1035a9.239,9.239,0,0,1-2.3633,2.0527A5.84,5.84,0,0,1,116.0225,49.4263Z" fill="#231654"/>
      <path d="M137.0674,49.4263a6.8185,6.8185,0,0,1-2.708-.4834,4.7312,4.7312,0,0,1-1.8291-1.3447,5.4813,5.4813,0,0,1-1.0352-2.0879,10.4555,10.4555,0,0,1-.3271-2.708V35.8677h-2.3457V32.107l2.622-.2071.586-4.5537h4.209V31.9h4.1054v3.9678h-4.1054v6.8652a2.9813,2.9813,0,0,0,.6035,2.0879,2.1035,2.1035,0,0,0,1.6045.6377,3.6041,3.6041,0,0,0,.8457-.1035,5.62,5.62,0,0,0,.7763-.2412l.793,3.6914q-.69.2066-1.6211.4141A10.128,10.128,0,0,1,137.0674,49.4263Z" fill="#231654"/>
      <path d="M149.5918,49.4263a6.8189,6.8189,0,0,1-2.708-.4834,4.7312,4.7312,0,0,1-1.8291-1.3447A5.4813,5.4813,0,0,1,144.02,45.51a10.4555,10.4555,0,0,1-.3271-2.708V35.8677h-2.3457V32.107l2.6221-.2071.5859-4.5537h4.209V31.9h4.1054v3.9678h-4.1054v6.8652a2.9813,2.9813,0,0,0,.6035,2.0879,2.1035,2.1035,0,0,0,1.6045.6377,3.6041,3.6041,0,0,0,.8457-.1035,5.6261,5.6261,0,0,0,.7764-.2412l.7929,3.6914q-.69.2066-1.6211.4141A10.128,10.128,0,0,1,149.5918,49.4263Z" fill="#231654"/>
      <path d="M162.9434,49.4263a8.4443,8.4443,0,0,1-3.14-.6035,7.97,7.97,0,0,1-2.6738-1.7422,8.3655,8.3655,0,0,1-1.8457-2.8125,10.8823,10.8823,0,0,1,0-7.624,8.36,8.36,0,0,1,1.8457-2.8116,7.9568,7.9568,0,0,1,2.6738-1.7422,8.4252,8.4252,0,0,1,3.14-.6044,8.291,8.291,0,0,1,3.122.6044,8.0052,8.0052,0,0,1,2.6573,1.7422,8.392,8.392,0,0,1,1.8457,2.8116,10.8838,10.8838,0,0,1,0,7.624,8.3971,8.3971,0,0,1-1.8457,2.8125,8.0191,8.0191,0,0,1-2.6573,1.7422A8.31,8.31,0,0,1,162.9434,49.4263Zm0-4.1055a2.5717,2.5717,0,0,0,2.3457-1.3115,6.8282,6.8282,0,0,0,.7939-3.5527,6.8347,6.8347,0,0,0-.7939-3.5538,2.7692,2.7692,0,0,0-4.709,0,6.9606,6.9606,0,0,0-.7764,3.5538,6.954,6.954,0,0,0,.7764,3.5527A2.5629,2.5629,0,0,0,162.9434,45.3208Z" fill="#231654"/>
      <path d="M174.7412,49.0122V31.9h4.1406l.3448,2.1738h.1377a13.7963,13.7963,0,0,1,2.415-1.8115,5.9131,5.9131,0,0,1,3.07-.7763,4.5709,4.5709,0,0,1,4.0537,1.8291,8.8378,8.8378,0,0,1,1.26,5.0712v10.626h-5.0713V39.0415a4.6185,4.6185,0,0,0-.501-2.5527,1.8458,1.8458,0,0,0-1.6035-.69,3.0648,3.0648,0,0,0-1.6562.4316,9.753,9.753,0,0,0-1.5176,1.2246V49.0122Z" fill="#231654"/>
    </g>
    <rect x="88.75" y="53.3062" width="102.5" height="2.5" fill="#231654"/>
  </g>
</svg>
